{
	"asset":{
		"generator":"Khronos glTF Blender I/O v5.2.39",
		"version":"2.0"
	},
	"scene":0,
	"scenes":[
		{
			"name":"Scene",
			"nodes":[
				0,
				1,
				2,
				3,
				4,
				5,
				6
			]
		}
	],
	"nodes":[
		{
			"name":"1",
			"scale":[
				0.35896438360214233,
				0.35896438360214233,
				0.35896438360214233
			],
			"translation":[
				0,
				8.349832534790039,
				0.924373209476471
			]
		},
		{
			"name":"B\u00e9zierCircle",
			"translation":[
				-0.02326202392578125,
				0.3234693109989166,
				-1.0695443153381348
			]
		},
		{
			"name":"Empty.003",
			"rotation":[
				0,
				-0.7071068286895752,
				0.7071068286895752,
				1.306566446146462e-07
			],
			"translation":[
				1.6161843538284302,
				-0.4884617030620575,
				-3.6191000938415527
			]
		},
		{
			"mesh":0,
			"name":"hood.001"
		},
		{
			"mesh":1,
			"name":"hood.002"
		},
		{
			"name":"Plane.005",
			"rotation":[
				0.70710688829422,
				0,
				0,
				0.7071066498756409
			],
			"scale":[
				0.008148378692567348,
				0.018920764327049255,
				0.018920768052339554
			],
			"translation":[
				0,
				0.4826360046863556,
				1.8956794738769531
			]
		},
		{
			"name":"roof.002",
			"scale":[
				0.41362452507019043,
				0.41362452507019043,
				0.41362452507019043
			],
			"translation":[
				0,
				0.4826360046863556,
				0.6092544198036194
			]
		}
	],
	"materials":[
		{
			"doubleSided":true,
			"name":"glass.001",
			"pbrMetallicRoughness":{
				"baseColorFactor":[
					0.0005695954896509647,
					0.0032704342156648636,
					0.14562644064426422,
					1
				],
				"metallicFactor":0,
				"roughnessFactor":0.5
			}
		},
		{
			"doubleSided":true,
			"name":"car",
			"pbrMetallicRoughness":{
				"baseColorFactor":[
					1,
					0,
					0,
					1
				],
				"metallicFactor":0,
				"roughnessFactor":0.5
			}
		},
		{
			"doubleSided":true,
			"name":"headlight",
			"pbrMetallicRoughness":{
				"baseColorFactor":[
					0,
					0,
					0,
					1
				],
				"metallicFactor":0,
				"roughnessFactor":0.5
			}
		},
		{
			"doubleSided":true,
			"name":"car wheel rim",
			"pbrMetallicRoughness":{
				"baseColorFactor":[
					0.18590542674064636,
					0.18590542674064636,
					0.18590542674064636,
					1
				],
				"metallicFactor":0,
				"roughnessFactor":0.5
			}
		},
		{
			"doubleSided":true,
			"name":"wheels",
			"pbrMetallicRoughness":{
				"baseColorFactor":[
					0,
					0,
					0,
					1
				],
				"metallicFactor":0,
				"roughnessFactor":0.5
			}
		},
		{
			"doubleSided":true,
			"name":"brake disk",
			"pbrMetallicRoughness":{
				"baseColorFactor":[
					0.2639293670654297,
					0.2639293670654297,
					0.2639293670654297,
					1
				],
				"metallicFactor":0,
				"roughnessFactor":0.5
			}
		},
		{
			"doubleSided":true,
			"name":"other",
			"pbrMetallicRoughness":{
				"baseColorFactor":[
					1,
					0.7238396406173706,
					0,
					1
				],
				"metallicFactor":0,
				"roughnessFactor":0.5
			}
		},
		{
			"doubleSided":true,
			"name":"light",
			"pbrMetallicRoughness":{
				"baseColorFactor":[
					0,
					0,
					0,
					1
				],
				"metallicFactor":0,
				"roughnessFactor":0.5
			}
		},
		{
			"doubleSided":true,
			"name":"Material.004",
			"pbrMetallicRoughness":{
				"baseColorFactor":[
					1,
					0.0007123430259525776,
					0.4906037151813507,
					1
				],
				"metallicFactor":0,
				"roughnessFactor":0.5
			}
		},
		{
			"doubleSided":true,
			"name":"muffler",
			"pbrMetallicRoughness":{
				"baseColorFactor":[
					0.11095517873764038,
					0.11095517873764038,
					0.11095517873764038,
					1
				],
				"metallicFactor":0,
				"roughnessFactor":0.5
			}
		}
	],
	"meshes":[
		{
			"name":"Plane.007",
			"primitives":[
				{
					"attributes":{
						"POSITION":0,
						"NORMAL":1,
						"TEXCOORD_0":2
					},
					"indices":3
				}
			]
		},
		{
			"name":"Plane.023",
			"primitives":[
				{
					"attributes":{
						"POSITION":4,
						"NORMAL":5,
						"TEXCOORD_0":6
					},
					"indices":7,
					"material":0
				},
				{
					"attributes":{
						"POSITION":8,
						"NORMAL":9,
						"TEXCOORD_0":10
					},
					"indices":11,
					"material":1
				},
				{
					"attributes":{
						"POSITION":12,
						"NORMAL":13,
						"TEXCOORD_0":14
					},
					"indices":15,
					"material":2
				},
				{
					"attributes":{
						"POSITION":16,
						"NORMAL":17,
						"TEXCOORD_0":18
					},
					"indices":19,
					"material":3
				},
				{
					"attributes":{
						"POSITION":20,
						"NORMAL":21,
						"TEXCOORD_0":22
					},
					"indices":23,
					"material":4
				},
				{
					"attributes":{
						"POSITION":24,
						"NORMAL":25,
						"TEXCOORD_0":26
					},
					"indices":27,
					"material":5
				},
				{
					"attributes":{
						"POSITION":28,
						"NORMAL":29,
						"TEXCOORD_0":30
					},
					"indices":31,
					"material":6
				},
				{
					"attributes":{
						"POSITION":32,
						"NORMAL":33,
						"TEXCOORD_0":34
					},
					"indices":35,
					"material":7
				},
				{
					"attributes":{
						"POSITION":36,
						"NORMAL":37,
						"TEXCOORD_0":38
					},
					"indices":39,
					"material":8
				},
				{
					"attributes":{
						"POSITION":40,
						"NORMAL":41,
						"TEXCOORD_0":42
					},
					"indices":43,
					"material":9
				}
			]
		}
	],
	"accessors":[
		{
			"bufferView":0,
			"componentType":5126,
			"count":32,
			"max":[
				0.5913716554641724,
				0.6218141317367554,
				1.5644503831863403
			],
			"min":[
				-0.5913716554641724,
				0.5887275338172913,
				1.4041632413864136
			],
			"type":"VEC3"
		},
		{
			"bufferView":1,
			"componentType":5126,
			"count":32,
			"type":"VEC3"
		},
		{
			"bufferView":2,
			"componentType":5126,
			"count":32,
			"type":"VEC2"
		},
		{
			"bufferView":3,
			"componentType":5123,
			"count":72,
			"type":"SCALAR"
		},
		{
			"bufferView":4,
			"componentType":5126,
			"count":453,
			"max":[
				0.5449556112289429,
				0.8688889741897583,
				2.4539904594421387
			],
			"min":[
				-0.5449556112289429,
				0.362981379032135,
				-0.290876567363739
			],
			"type":"VEC3"
		},
		{
			"bufferView":5,
			"componentType":5126,
			"count":453,
			"type":"VEC3"
		},
		{
			"bufferView":6,
			"componentType":5126,
			"count":453,
			"type":"VEC2"
		},
		{
			"bufferView":7,
			"componentType":5123,
			"count":1914,
			"type":"SCALAR"
		},
		{
			"bufferView":8,
			"componentType":5126,
			"count":8171,
			"max":[
				0.6694561839103699,
				0.9167255163192749,
				2.509321689605713
			],
			"min":[
				-0.6694561243057251,
				0.10535576939582825,
				-0.7333371043205261
			],
			"type":"VEC3"
		},
		{
			"bufferView":9,
			"componentType":5126,
			"count":8171,
			"type":"VEC3"
		},
		{
			"bufferView":10,
			"componentType":5126,
			"count":8171,
			"type":"VEC2"
		},
		{
			"bufferView":11,
			"componentType":5123,
			"count":33231,
			"type":"SCALAR"
		},
		{
			"bufferView":12,
			"componentType":5126,
			"count":514,
			"max":[
				0.6292394399642944,
				0.5078021883964539,
				2.3960633277893066
			],
			"min":[
				-0.6292394399642944,
				0.40307527780532837,
				2.0487685203552246
			],
			"type":"VEC3"
		},
		{
			"bufferView":13,
			"componentType":5126,
			"count":514,
			"type":"VEC3"
		},
		{
			"bufferView":14,
			"componentType":5126,
			"count":514,
			"type":"VEC2"
		},
		{
			"bufferView":15,
			"componentType":5123,
			"count":2160,
			"type":"SCALAR"
		},
		{
			"bufferView":16,
			"componentType":5126,
			"count":24503,
			"max":[
				0.6599941849708557,
				0.4063636064529419,
				2.031411647796631
			],
			"min":[
				-0.6599941253662109,
				0.04441818594932556,
				-0.1826656311750412
			],
			"type":"VEC3"
		},
		{
			"bufferView":17,
			"componentType":5126,
			"count":24503,
			"type":"VEC3"
		},
		{
			"bufferView":18,
			"componentType":5126,
			"count":24503,
			"type":"VEC2"
		},
		{
			"bufferView":19,
			"componentType":5123,
			"count":89520,
			"type":"SCALAR"
		},
		{
			"bufferView":20,
			"componentType":5126,
			"count":64788,
			"max":[
				0.6637913584709167,
				0.455497682094574,
				2.080138921737671
			],
			"min":[
				-0.663791298866272,
				-0.0035468637943267822,
				-0.23139254748821259
			],
			"type":"VEC3"
		},
		{
			"bufferView":21,
			"componentType":5126,
			"count":64788,
			"type":"VEC3"
		},
		{
			"bufferView":22,
			"componentType":5126,
			"count":64788,
			"type":"VEC2"
		},
		{
			"bufferView":23,
			"componentType":5123,
			"count":216564,
			"type":"SCALAR"
		},
		{
			"bufferView":24,
			"componentType":5126,
			"count":2031,
			"max":[
				0.6356173753738403,
				0.3548831045627594,
				1.9732595682144165
			],
			"min":[
				-0.6356173753738403,
				0.09749099612236023,
				-0.12451295554637909
			],
			"type":"VEC3"
		},
		{
			"bufferView":25,
			"componentType":5126,
			"count":2031,
			"type":"VEC3"
		},
		{
			"bufferView":26,
			"componentType":5126,
			"count":2031,
			"type":"VEC2"
		},
		{
			"bufferView":27,
			"componentType":5123,
			"count":8136,
			"type":"SCALAR"
		},
		{
			"bufferView":28,
			"componentType":5126,
			"count":51151,
			"max":[
				0.7052148580551147,
				0.8676121234893799,
				2.5556235313415527
			],
			"min":[
				-0.7052148580551147,
				0.08340689539909363,
				-0.7386600375175476
			],
			"type":"VEC3"
		},
		{
			"bufferView":29,
			"componentType":5126,
			"count":51151,
			"type":"VEC3"
		},
		{
			"bufferView":30,
			"componentType":5126,
			"count":51151,
			"type":"VEC2"
		},
		{
			"bufferView":31,
			"componentType":5123,
			"count":134400,
			"type":"SCALAR"
		},
		{
			"bufferView":32,
			"componentType":5126,
			"count":296,
			"max":[
				0.5585654973983765,
				0.48348894715309143,
				2.3647711277008057
			],
			"min":[
				-0.5585654973983765,
				0.41600918769836426,
				2.114499568939209
			],
			"type":"VEC3"
		},
		{
			"bufferView":33,
			"componentType":5126,
			"count":296,
			"type":"VEC3"
		},
		{
			"bufferView":34,
			"componentType":5126,
			"count":296,
			"type":"VEC2"
		},
		{
			"bufferView":35,
			"componentType":5123,
			"count":780,
			"type":"SCALAR"
		},
		{
			"bufferView":36,
			"componentType":5126,
			"count":580,
			"max":[
				0.5026352405548096,
				0.5976670384407043,
				-0.4978103041648865
			],
			"min":[
				-0.5026352405548096,
				0.49071621894836426,
				-0.634143054485321
			],
			"type":"VEC3"
		},
		{
			"bufferView":37,
			"componentType":5126,
			"count":580,
			"type":"VEC3"
		},
		{
			"bufferView":38,
			"componentType":5126,
			"count":580,
			"type":"VEC2"
		},
		{
			"bufferView":39,
			"componentType":5123,
			"count":1512,
			"type":"SCALAR"
		},
		{
			"bufferView":40,
			"componentType":5126,
			"count":1244,
			"max":[
				0.5021597743034363,
				0.22470799088478088,
				-0.3671354651451111
			],
			"min":[
				-0.5021597146987915,
				0.13078495860099792,
				-0.6489483714103699
			],
			"type":"VEC3"
		},
		{
			"bufferView":41,
			"componentType":5126,
			"count":1244,
			"type":"VEC3"
		},
		{
			"bufferView":42,
			"componentType":5126,
			"count":1244,
			"type":"VEC2"
		},
		{
			"bufferView":43,
			"componentType":5123,
			"count":3432,
			"type":"SCALAR"
		}
	],
	"bufferViews":[
		{
			"buffer":0,
			"byteLength":384,
			"byteOffset":0,
			"target":34962
		},
		{
			"buffer":0,
			"byteLength":384,
			"byteOffset":384,
			"target":34962
		},
		{
			"buffer":0,
			"byteLength":256,
			"byteOffset":768,
			"target":34962
		},
		{
			"buffer":0,
			"byteLength":144,
			"byteOffset":1024,
			"target":34963
		},
		{
			"buffer":0,
			"byteLength":5436,
			"byteOffset":1168,
			"target":34962
		},
		{
			"buffer":0,
			"byteLength":5436,
			"byteOffset":6604,
			"target":34962
		},
		{
			"buffer":0,
			"byteLength":3624,
			"byteOffset":12040,
			"target":34962
		},
		{
			"buffer":0,
			"byteLength":3828,
			"byteOffset":15664,
			"target":34963
		},
		{
			"buffer":0,
			"byteLength":98052,
			"byteOffset":19492,
			"target":34962
		},
		{
			"buffer":0,
			"byteLength":98052,
			"byteOffset":117544,
			"target":34962
		},
		{
			"buffer":0,
			"byteLength":65368,
			"byteOffset":215596,
			"target":34962
		},
		{
			"buffer":0,
			"byteLength":66462,
			"byteOffset":280964,
			"target":34963
		},
		{
			"buffer":0,
			"byteLength":6168,
			"byteOffset":347428,
			"target":34962
		},
		{
			"buffer":0,
			"byteLength":6168,
			"byteOffset":353596,
			"target":34962
		},
		{
			"buffer":0,
			"byteLength":4112,
			"byteOffset":359764,
			"target":34962
		},
		{
			"buffer":0,
			"byteLength":4320,
			"byteOffset":363876,
			"target":34963
		},
		{
			"buffer":0,
			"byteLength":294036,
			"byteOffset":368196,
			"target":34962
		},
		{
			"buffer":0,
			"byteLength":294036,
			"byteOffset":662232,
			"target":34962
		},
		{
			"buffer":0,
			"byteLength":196024,
			"byteOffset":956268,
			"target":34962
		},
		{
			"buffer":0,
			"byteLength":179040,
			"byteOffset":1152292,
			"target":34963
		},
		{
			"buffer":0,
			"byteLength":777456,
			"byteOffset":1331332,
			"target":34962
		},
		{
			"buffer":0,
			"byteLength":777456,
			"byteOffset":2108788,
			"target":34962
		},
		{
			"buffer":0,
			"byteLength":518304,
			"byteOffset":2886244,
			"target":34962
		},
		{
			"buffer":0,
			"byteLength":433128,
			"byteOffset":3404548,
			"target":34963
		},
		{
			"buffer":0,
			"byteLength":24372,
			"byteOffset":3837676,
			"target":34962
		},
		{
			"buffer":0,
			"byteLength":24372,
			"byteOffset":3862048,
			"target":34962
		},
		{
			"buffer":0,
			"byteLength":16248,
			"byteOffset":3886420,
			"target":34962
		},
		{
			"buffer":0,
			"byteLength":16272,
			"byteOffset":3902668,
			"target":34963
		},
		{
			"buffer":0,
			"byteLength":613812,
			"byteOffset":3918940,
			"target":34962
		},
		{
			"buffer":0,
			"byteLength":613812,
			"byteOffset":4532752,
			"target":34962
		},
		{
			"buffer":0,
			"byteLength":409208,
			"byteOffset":5146564,
			"target":34962
		},
		{
			"buffer":0,
			"byteLength":268800,
			"byteOffset":5555772,
			"target":34963
		},
		{
			"buffer":0,
			"byteLength":3552,
			"byteOffset":5824572,
			"target":34962
		},
		{
			"buffer":0,
			"byteLength":3552,
			"byteOffset":5828124,
			"target":34962
		},
		{
			"buffer":0,
			"byteLength":2368,
			"byteOffset":5831676,
			"target":34962
		},
		{
			"buffer":0,
			"byteLength":1560,
			"byteOffset":5834044,
			"target":34963
		},
		{
			"buffer":0,
			"byteLength":6960,
			"byteOffset":5835604,
			"target":34962
		},
		{
			"buffer":0,
			"byteLength":6960,
			"byteOffset":5842564,
			"target":34962
		},
		{
			"buffer":0,
			"byteLength":4640,
			"byteOffset":5849524,
			"target":34962
		},
		{
			"buffer":0,
			"byteLength":3024,
			"byteOffset":5854164,
			"target":34963
		},
		{
			"buffer":0,
			"byteLength":14928,
			"byteOffset":5857188,
			"target":34962
		},
		{
			"buffer":0,
			"byteLength":14928,
			"byteOffset":5872116,
			"target":34962
		},
		{
			"buffer":0,
			"byteLength":9952,
			"byteOffset":5887044,
			"target":34962
		},
		{
			"buffer":0,
			"byteLength":6864,
			"byteOffset":5896996,
			"target":34963
		}
	],
	"buffers":[
		{
			"byteLength":5903860,
			"uri":"mustang.bin"
		}
	]
}
